# xmcd
#
# Track frame offsets: 
#        150
#        27161
#        49682
#        64688
#        89514
#        104679
#        126724
#        147011
#        162079
#        187481
#        207098
#
# Disc length: 3093 seconds
#
# Revision: 0
# Processed by: cddbd v1.5.2PL0 Copyright (c) Steve Scherf et al.
# Submitted via: ExactAudioCopy v1.0b4
#
DISCID=a50c130b
DTITLE=Barry Levenson and Johnny Dyer - Hard Time Won
DYEAR=2003
DGENRE=Blues
TTITLE0=Hard Time Won
TTITLE1=Chasing The Money
TTITLE2=Things You Do
TTITLE3=Inhumanity Blues
TTITLE4=She's So Fine
TTITLE5=I Ain't Going Back
TTITLE6=The Graveyard Shift
TTITLE7=9 O'Clock Blues
TTITLE8=Blues Never Slim
TTITLE9=Drinking Stops me Thinking
TTITLE10=Slip Me Some Green, Jack
EXTD=
EXTT0=
EXTT1=
EXTT2=
EXTT3=
EXTT4=
EXTT5=
EXTT6=
EXTT7=
EXTT8=
EXTT9=
EXTT10=
PLAYORDER=
